PathFileType	4	(X/Y/Z)	C:\Users\Basilio\Documents\Thesis Gigler\squatting_fais\c3dfiles\038\SLS_front_pre5\markers_experimental.trc
DataRate	CameraRate	NumFrames	NumMarkers	Units	OrigDataRate	OrigDataStartFrame	OrigNumFrames
200.000000	200.000000	4	61	mm	200.000000	0	1532
Frame#	Time	FHD			LBHD			RBHD			C7			T10			CLAV			LSHO			LUUPA			LMUPA			LDUPA			LLEP			LMEP			LRAD			LUL			LRFIN			RSHO			RUPA1			RMUPA			RDUPA			RLEP			RMEP			RRAD			RUL			RUFIN			LASI			RASI			USACR			LSACR			RSACR			LTHI1			LTHI2			LTHI3			LTHI4			LLFC			LMFC			LTIB1			LTIB2			LTIB3			LTIB4			LLMAL			LMMAL			LHEE			LMT1			LMT2			LMT5			RTHI			RTHI2			RTHI3			RTHI4			RLFC			RMFC			RTIB1			RTIB2			RTIB3			RTIB4			RLMAL			RMMAL			RHEE			RMT1			RMT2			RMT5			
		X1	Y1	Z1	X2	Y2	Z2	X3	Y3	Z3	X4	Y4	Z4	X5	Y5	Z5	X6	Y6	Z6	X7	Y7	Z7	X8	Y8	Z8	X9	Y9	Z9	X10	Y10	Z10	X11	Y11	Z11	X12	Y12	Z12	X13	Y13	Z13	X14	Y14	Z14	X15	Y15	Z15	X16	Y16	Z16	X17	Y17	Z17	X18	Y18	Z18	X19	Y19	Z19	X20	Y20	Z20	X21	Y21	Z21	X22	Y22	Z22	X23	Y23	Z23	X24	Y24	Z24	X25	Y25	Z25	X26	Y26	Z26	X27	Y27	Z27	X28	Y28	Z28	X29	Y29	Z29	X30	Y30	Z30	X31	Y31	Z31	X32	Y32	Z32	X33	Y33	Z33	X34	Y34	Z34	X35	Y35	Z35	X36	Y36	Z36	X37	Y37	Z37	X38	Y38	Z38	X39	Y39	Z39	X40	Y40	Z40	X41	Y41	Z41	X42	Y42	Z42	X43	Y43	Z43	X44	Y44	Z44	X45	Y45	Z45	X46	Y46	Z46	X47	Y47	Z47	X48	Y48	Z48	X49	Y49	Z49	X50	Y50	Z50	X51	Y51	Z51	X52	Y52	Z52	X53	Y53	Z53	X54	Y54	Z54	X55	Y55	Z55	X56	Y56	Z56	X57	Y57	Z57	X58	Y58	Z58	X59	Y59	Z59	X60	Y60	Z60	X61	Y61	Z61	

1	0	-248.9382629394532	1779.431884765625	-995.0020751953127	-399.5159301757814	1717.929565429688	-1059.539184570313	-393.0061645507814	1703.4404296875	-914.811218261719	-431.1897277832032	1529.42041015625	-987.9133300781252	-383.6569213867188	1251.6357421875	-976.3458251953127	-285.5811462402344	1529.69140625	-996.023132324219	-346.8158264160157	1556.586669921875	-1140.567504882813	-174.3612670898438	1506.079223632813	-1266.273071289063	-149.0830383300782	1540.389526367188	-1237.83251953125	-105.6112670898438	1517.068115234375	-1271.89111328125	-43.93956375122071	1522.44140625	-1270.665405273438	-31.40358352661134	1447.468872070313	-1251.307983398438	235.4898071289063	1520.330810546875	-1152.194580078125	248.3323059082032	1544.944458007813	-1218.960571289063	306.0489807128907	1552.392456054688	-1123.540893554688	-337.3101196289063	1553.689086914063	-850.175720214844	-181.1295928955078	1531.060913085938	-725.0325317382814	-144.1789245605469	1543.668090820313	-755.0498657226564	-113.4977416992188	1530.54052734375	-704.3582763671876	-40.48341369628907	1532.517700195313	-691.2284545898439	-30.10758018493653	1453.564086914063	-704.7510986328126	233.1540832519532	1537.73388671875	-783.9216308593752	245.5084686279297	1557.098388671875	-717.0288696289064	311.5953674316407	1574.814208984375	-793.976501464844	-200.7206115722657	1075.142822265625	-1091.521240234375	-205.6017150878907	1090.5234375	-838.0076904296877	-373.4447326660157	1124.256713867188	-969.8634033203127	-385.8780212402345	1094.920166015625	-996.1977539062502	-384.863494873047	1096.485473632813	-940.4704589843752	-263.5090026855469	752.1995239257814	-1140.491455078125	-239.1604614257813	670.9810791015626	-1135.244140625	-190.8023223876953	672.1670532226564	-1117.535034179688	-269.1009216308594	623.4780273437501	-1114.20849609375	-269.6518554687501	561.6269531250001	-1107.804443359375	-250.0017089843751	549.5523681640626	-989.3856201171877	-246.9840087890626	368.3551025390626	-1045.264526367188	-296.5866088867188	333.0476684570313	-1109.7802734375	-261.6741027832032	323.0420532226563	-1082.423828125	-276.7937927246094	245.4199981689454	-1056.430419921875	-369.7934570312501	115.0661773681641	-1075.43212890625	-327.4459533691407	129.1425933837891	-1006.579956054688	-416.6883544921876	94.76448059082033	-1017.81787109375	-216.7742767333985	49.33368301391603	-1019.447204589844	-210.6547546386719	45.41106033325196	-1070.507934570313	-257.2393493652344	31.10186958312989	-1114.7109375	-273.5900573730469	816.0322265625002	-784.691589355469	-243.9929962158204	756.1544799804689	-780.0279541015627	-210.6213073730469	754.0678100585939	-783.521179199219	-280.2564086914063	680.2119140625001	-797.0260009765627	-279.5369873046876	542.4184570312501	-803.126647949219	-281.4154663085938	540.1899414062501	-924.4467773437502	-246.0757751464844	364.7551269531251	-828.861999511719	-323.0446777343751	288.4245300292969	-786.562438964844	-278.0854187011719	289.2886047363282	-799.3961181640627	-272.6444702148438	237.6069641113282	-828.9695434570315	-340.0401306152344	119.6427078247071	-795.6258544921877	-316.1989135742188	125.8444213867188	-875.8927001953127	-404.7584838867189	85.83948516845705	-852.8403930664065	-190.8461608886719	49.61821365356447	-860.591247558594	-190.2281494140625	48.5338821411133	-813.3095703125002	-231.9443664550782	34.24201965332032	-766.7226562500001	
2	0.005	-248.8915100097657	1779.437866210938	-995.0191650390627	-399.4989013671876	1717.926391601563	-1059.559326171875	-392.9627685546876	1703.41064453125	-914.789978027344	-431.1318359375001	1529.398681640625	-987.9024658203127	-383.5944519042969	1251.627075195313	-976.3668212890627	-285.5586853027344	1529.692016601563	-995.9744262695315	-346.7387084960938	1556.541870117188	-1140.583618164063	-174.4021911621094	1506.0322265625	-1266.260009765625	-149.0835418701172	1540.321411132813	-1237.830444335938	-105.6067581176758	1517.003540039063	-1271.87890625	-43.9534034729004	1522.367797851563	-1270.673583984375	-31.39191818237305	1447.379028320313	-1251.283325195313	235.5586242675782	1520.27294921875	-1152.16552734375	248.3563537597657	1544.907348632813	-1218.962036132813	305.9429626464844	1552.349853515625	-1123.611083984375	-337.3023071289063	1553.703002929688	-850.1828613281252	-181.0739440917969	1531.066284179688	-725.0423583984376	-144.6104125976563	1543.443237304688	-755.2149047851564	-113.4261627197266	1530.533569335938	-704.3558349609376	-40.48222732543946	1532.50146484375	-691.2097778320314	-30.08750724792481	1453.562255859375	-704.7801513671876	233.1565093994141	1537.786987304688	-783.9254150390627	245.5860595703126	1557.0859375	-717.0349121093751	311.6236572265626	1574.832275390625	-793.9991455078127	-200.7206268310547	1075.142822265625	-1091.521240234375	-205.587142944336	1090.543212890625	-837.9404907226565	-373.4107055664063	1124.234497070313	-969.8632812500002	-385.8861083984376	1094.885009765625	-996.1933593750002	-384.7735290527345	1096.4580078125	-940.4796142578127	-263.4818725585938	752.1987304687501	-1140.464111328125	-239.1595306396485	671.0105590820314	-1135.247192382813	-190.7684326171875	672.1674804687501	-1117.54248046875	-269.0675964355469	623.4715576171876	-1114.2099609375	-269.6929321289063	561.6314697265626	-1107.776489257813	-250.0017089843751	549.5523681640626	-989.3856201171877	-246.9854278564454	368.3787231445313	-1045.259399414063	-296.5759277343751	333.0606384277344	-1109.778198242188	-261.7371520996094	323.6133728027344	-1082.603515625	-276.8378601074219	245.4173278808594	-1056.41650390625	-369.7935180664063	115.0680541992188	-1075.440551757813	-327.4820556640626	129.152816772461	-1006.561340332031	-416.7611083984376	94.76742553710939	-1017.761169433594	-216.7536163330079	49.35909271240236	-1019.450256347656	-210.6550445556641	45.40647888183594	-1070.448120117188	-257.2284240722657	31.09175872802735	-1114.68896484375	-273.5745544433594	816.0527954101565	-784.710144042969	-243.9542541503907	756.1283569335939	-780.0520629882815	-210.6095886230469	754.0518798828126	-783.4804687500002	-280.2318115234376	680.2115478515626	-797.0161743164065	-279.5355224609376	542.4366455078126	-803.1026611328127	-281.4020996093751	540.2070312500001	-924.4477539062502	-246.0717163085938	364.7376403808594	-828.8572998046877	-323.0696105957032	288.4263610839844	-786.5782470703127	-278.0563049316407	289.2893981933594	-799.4337158203127	-272.6280822753907	237.6074981689454	-829.0049438476565	-340.0269775390626	119.6525039672852	-795.636901855469	-315.4951782226563	125.3317642211914	-875.7739868164065	-404.712860107422	85.82295989990236	-852.870544433594	-190.913818359375	50.19254684448244	-860.3413696289065	-188.4832153320313	49.45376205444337	-814.0452270507815	-231.9906616210938	34.22368240356446	-766.6980590820314	
3	0.01	-248.9340515136719	1779.457153320313	-994.9965820312502	-399.4919738769532	1717.913818359375	-1059.560546875	-392.9224853515626	1703.422729492188	-914.8284912109377	-431.1213378906251	1529.393676757813	-987.9287719726565	-383.5856323242188	1251.594360351563	-976.3374023437502	-285.5513916015626	1529.694702148438	-996.0025634765627	-346.7456359863282	1556.543579101563	-1140.568237304688	-174.4074401855469	1505.962158203125	-1266.254760742188	-149.0343627929688	1540.27978515625	-1237.868286132813	-105.5730133056641	1516.96484375	-1271.915405273438	-43.94084548950196	1522.298583984375	-1270.6669921875	-31.34766578674317	1447.333984375	-1251.25439453125	235.558822631836	1520.239990234375	-1152.111572265625	248.3948364257813	1544.806884765625	-1218.978271484375	306.0449523925782	1552.325073242188	-1123.582275390625	-337.2767639160157	1553.686645507813	-850.1894531250002	-181.0700225830078	1531.035278320313	-725.0454101562501	-144.6184387207032	1543.443603515625	-755.2498168945314	-113.381217956543	1530.504028320313	-704.3678588867189	-40.4305763244629	1532.492431640625	-691.1864624023439	-30.07805061340333	1453.548095703125	-704.7161254882814	233.2207794189454	1537.753295898438	-783.944274902344	245.644515991211	1557.049560546875	-717.0071411132814	311.7621765136719	1575.314086914063	-794.4265747070315	-200.6411132812501	1075.129272460938	-1091.52001953125	-205.5365905761719	1090.54541015625	-837.9884033203127	-373.4076232910157	1124.251098632813	-969.8627929687502	-385.8300170898439	1094.89697265625	-996.145446777344	-384.7644958496095	1096.480590820313	-940.4824218750002	-263.4885253906251	752.2352294921876	-1140.462890625	-239.1159667968751	670.9914550781251	-1135.250610351563	-190.7933654785157	672.1567993164064	-1117.560424804688	-269.0432739257813	623.4771728515626	-1114.200561523438	-269.7123107910157	561.6484375000001	-1107.755493164063	-250.0017089843751	549.5523681640626	-989.3856201171877	-246.9854278564454	368.3787231445313	-1045.259399414063	-296.5591430664063	333.1003112792969	-1109.778564453125	-261.7068786621094	323.6129760742188	-1082.615966796875	-276.8392639160157	245.4386596679688	-1056.41259765625	-369.8011474609376	115.0797271728516	-1075.41455078125	-327.4518737792969	129.1520690917969	-1006.574829101563	-416.7541809082032	94.79129791259767	-1017.799621582031	-216.7437286376954	49.363582611084	-1019.459106445313	-210.6605377197266	45.41363143920899	-1070.460205078125	-257.2601928710938	31.12632369995118	-1114.702880859375	-273.5198059082032	816.0488281250002	-784.7135009765627	-243.9059448242188	756.1292724609376	-780.0324707031252	-210.6052398681641	754.0660400390626	-783.4909667968752	-280.1624755859376	680.2047119140626	-797.0079345703127	-279.5028381347657	542.4179077148439	-803.1138305664065	-281.3867492675782	540.2216796875001	-924.451843261719	-246.0919342041016	364.7510375976563	-828.8848266601565	-323.0350036621094	288.4176635742188	-786.5856933593752	-278.1092834472657	289.2874450683594	-799.3992919921877	-272.6152343750001	237.5824279785157	-828.9968261718752	-340.0158386230469	119.6486129760742	-795.5894165039065	-316.1624145507813	125.8372802734375	-875.8791503906252	-404.7180480957032	85.83306121826173	-852.8157958984377	-190.9009094238282	50.14465332031251	-860.3706665039065	-190.6811676025391	48.18588256835939	-813.4715576171877	-231.9904937744141	34.22604751586915	-766.6812744140626	
4	0.015	-248.8632507324219	1779.429443359375	-995.055114746094	-399.4414367675782	1717.907470703125	-1059.581909179688	-392.9200439453126	1703.403442382813	-914.829772949219	-431.1318359375001	1529.398681640625	-987.9024658203127	-383.5330200195313	1251.595947265625	-976.2934570312502	-285.5503845214844	1529.641479492188	-995.9990234375002	-346.7409667968751	1556.520263671875	-1140.581176757813	-174.3927154541016	1505.897583007813	-1266.266845703125	-149.2338562011719	1539.828857421875	-1237.918334960938	-105.5345687866211	1516.902221679688	-1271.932250976563	-43.92248535156251	1522.2529296875	-1270.699096679688	-31.32484245300294	1447.254638671875	-1251.2138671875	235.5658416748047	1520.184814453125	-1152.15576171875	248.3899688720704	1544.744873046875	-1218.971557617188	305.9768981933594	1552.249267578125	-1123.621704101563	-337.2302856445313	1553.655639648438	-850.1853027343752	-181.0525360107422	1531.146240234375	-724.7180175781251	-144.5898132324219	1543.430541992188	-755.2009887695314	-113.387191772461	1530.472778320313	-704.3672485351564	-40.41759109497071	1532.46435546875	-691.1957397460939	-30.0560531616211	1453.552856445313	-704.7431030273439	233.3113403320313	1537.72412109375	-783.956481933594	245.7228240966797	1557.031616210938	-717.0344238281251	311.6639404296876	1574.802856445313	-794.0258789062502	-200.5999298095704	1075.091552734375	-1091.491821289063	-205.551010131836	1090.51953125	-837.960144042969	-373.3693847656251	1124.247436523438	-969.8188476562502	-385.745574951172	1094.880004882813	-996.1256103515627	-384.7005310058595	1096.441772460938	-940.4344482421877	-263.4437255859376	752.1907958984376	-1140.418823242188	-239.1709899902344	670.9790649414064	-1135.215209960938	-190.758544921875	672.1691894531251	-1117.5009765625	-269.0540161132813	623.4792480468751	-1114.17919921875	-269.6988830566407	561.6221313476564	-1107.75927734375	-249.9670410156251	549.5169067382814	-989.3811645507815	-246.9828796386719	368.3549804687501	-1045.23876953125	-296.5613403320313	333.0575561523438	-1109.76025390625	-261.7866516113282	323.6074218750001	-1082.63818359375	-276.8120727539063	245.4479522705079	-1056.385498046875	-369.8065185546876	115.0801620483399	-1075.409301757813	-327.4824523925782	129.1532897949219	-1006.562683105469	-416.7672424316407	94.76509094238283	-1017.803466796875	-216.7294464111329	49.33883666992189	-1019.455078125	-210.6682586669922	45.40769195556641	-1070.483032226563	-257.2590942382813	31.10625076293946	-1114.70947265625	-273.5128173828126	816.0368652343752	-784.713562011719	-243.9048767089844	756.1341552734376	-780.0264892578127	-210.5367584228516	754.0494384765626	-783.4810180664065	-280.1624755859376	680.2047119140626	-797.0079345703127	-279.4696960449219	542.4335327148439	-803.0964965820315	-281.3666687011719	540.2183837890626	-924.4398193359377	-246.0856170654297	364.7226562500001	-828.8862304687502	-323.4550476074219	288.0598144531251	-786.8128051757815	-278.0790405273438	289.2762451171876	-799.4014892578127	-272.6110534667969	237.6095123291016	-829.0032348632815	-340.0119934082032	119.6405563354492	-795.595642089844	-316.1518249511719	125.8545684814453	-875.885437011719	-404.7584838867189	85.83948516845705	-852.8403930664065	-190.8975219726563	50.11920166015626	-860.3735961914065	-190.7031555175782	48.17423629760744	-813.4764404296877	-231.9915771484376	34.24372863769532	-766.7017822265626	
